<svg xmlns="http://www.w3.org/2000/svg" width="173.005" height="32.2" viewBox="0 0 173.005 32.2"><defs><style>.a{fill:#fff;}</style></defs><g transform="translate(-2.1 -2)"><g transform="translate(52.488 28.178)"><path class="a" d="M129.126,72.371l-.642-1.606-.12,1.646H127.6l.281-3.011h.763l.763,1.887.8-1.887h.763l.281,3.011h-.763l-.12-1.646-.642,1.606Z" transform="translate(-127.6 -68.517)"/><path class="a" d="M141,72.411l1.164-3.011h.723l1.2,3.011h-.8l-.2-.522H142l-.2.522Zm1.164-1.164h.723l-.361-1.044Z" transform="translate(-135.62 -68.517)"/><path class="a" d="M155.267,71.387c.08.321.2.522.442.522a.456.456,0,0,0,.321-.12l.241.522a1.048,1.048,0,0,1-.723.241c-.723,0-.964-.763-1-1.084h-.281v1.044H153.5V69.5h1.405a.969.969,0,0,1,1,1A.9.9,0,0,1,155.267,71.387Zm-.442-.522a.364.364,0,0,0,0-.723H154.3v.763h.522Z" transform="translate(-143.101 -68.577)"/><path class="a" d="M166.063,72.411H165.3V69.4h.763v1.365l.843-1.365h.763v.12l-.883,1.325.321.642c.161.321.241.321.4.321a.678.678,0,0,0,.2-.08c.08.2.161.361.241.522a1.133,1.133,0,0,1-.6.161.959.959,0,0,1-.883-.642l-.4-.843Z" transform="translate(-150.164 -68.517)"/><path class="a" d="M176.7,72.411V69.4h2.088v.642h-1.325v.6h1.124v.6h-1.124v.562h1.325v.642H176.7Z" transform="translate(-156.987 -68.517)"/><path class="a" d="M189.049,69.4v.642h-.843v2.409h-.763V70.042H186.6V69.4Z" transform="translate(-162.912 -68.517)"/><path class="a" d="M198.663,72.411H197.9V69.4h.763Z" transform="translate(-169.675 -68.517)"/><path class="a" d="M206.163,70.725v1.686H205.4V69.4h.6l1.2,1.646V69.4h.763v3.011h-.6Z" transform="translate(-174.164 -68.517)"/><path class="a" d="M218.646,69.3a1.713,1.713,0,0,1,1.084.4l-.4.522a1.138,1.138,0,0,0-.642-.241.852.852,0,0,0-.923.883.866.866,0,0,0,.883.883,2.015,2.015,0,0,0,.482-.08v-.4h-.723v-.562h1.445V71.95a1.794,1.794,0,0,1-1.2.482A1.587,1.587,0,0,1,217,70.866,1.54,1.54,0,0,1,218.646,69.3Z" transform="translate(-181.106 -68.457)"/><path class="a" d="M236.724,72.392c-.6,0-1.124-.321-1.124-.883a.98.98,0,0,1,.723-.883.9.9,0,0,1-.321-.6c0-.522.482-.723.923-.723a.778.778,0,0,1,.843.723.857.857,0,0,1-.562.723c.12.12.2.241.321.361l.321-.4h.642v.12l-.562.683c.161.161.241.241.361.241a.449.449,0,0,0,.361-.161l.241.482a.947.947,0,0,1-.642.281c-.321,0-.4-.161-.6-.361A1.072,1.072,0,0,1,236.724,72.392Zm-.08-1.325a.462.462,0,0,0-.321.4c0,.2.161.321.442.321a.557.557,0,0,0,.4-.2Zm.2-.683c.161-.08.281-.2.281-.321a.241.241,0,1,0-.482,0C236.644,70.183,236.724,70.264,236.845,70.384Z" transform="translate(-192.238 -68.457)"/><path class="a" d="M255.283,71.288a.5.5,0,0,0,.562.4c.241,0,.4-.08.4-.281,0-.08-.04-.2-.321-.281l-.321-.12a1.17,1.17,0,0,1-.843-.883.957.957,0,0,1,1.084-.923,1.006,1.006,0,0,1,1.044.723l-.6.241a.488.488,0,0,0-.442-.321c-.2,0-.321.08-.321.241,0,.08.04.2.281.281l.321.12c.683.2.843.6.843.923,0,.642-.562.923-1.164.923a1.089,1.089,0,0,1-1.2-.923Z" transform="translate(-203.61 -68.397)"/><path class="a" d="M267.549,69.4v.642h-.843v2.409h-.763V70.042H265.1V69.4Z" transform="translate(-209.894 -68.517)"/><path class="a" d="M278.067,71.387c.08.321.2.522.442.522a.456.456,0,0,0,.321-.12l.241.522a1.048,1.048,0,0,1-.723.241c-.723,0-.964-.763-1-1.084h-.281v1.044H276.3V69.5h1.405a.969.969,0,0,1,1,1A.859.859,0,0,1,278.067,71.387Zm-.442-.522a.364.364,0,0,0,0-.723H277.1v.763h.522Z" transform="translate(-216.598 -68.577)"/><path class="a" d="M287.3,72.411l1.164-3.011h.723l1.2,3.011h-.8l-.2-.522H288.3l-.2.522Zm1.164-1.164h.723l-.361-1.044Z" transform="translate(-223.181 -68.517)"/><path class="a" d="M300.749,69.4v.642h-.843v2.409h-.763V70.042H298.3V69.4Z" transform="translate(-229.765 -68.517)"/><path class="a" d="M309.5,71.095V68.083h2.088v.642h-1.325v.6h1.124v.6h-1.124v.562h1.325v.642H309.5Zm1.686-3.895-.6.642H310.1l.361-.642Z" transform="translate(-236.468 -67.2)"/><path class="a" d="M321.146,69.3a1.713,1.713,0,0,1,1.084.4l-.4.522a1.138,1.138,0,0,0-.642-.241.852.852,0,0,0-.923.883.866.866,0,0,0,.883.883,2.015,2.015,0,0,0,.482-.08v-.4h-.723v-.562h1.445V71.95a1.794,1.794,0,0,1-1.2.482,1.587,1.587,0,0,1-1.646-1.566A1.54,1.54,0,0,1,321.146,69.3Z" transform="translate(-242.453 -68.457)"/><path class="a" d="M332.663,72.411H331.9V69.4h.763Z" transform="translate(-249.874 -68.517)"/><path class="a" d="M339.5,72.411V69.4h2.088v.642h-1.325v.6h1.124v.6h-1.124v.562h1.325v.642H339.5Z" transform="translate(-254.423 -68.517)"/><path class="a" d="M356.6,72.411V69.4h1.325a1.526,1.526,0,0,1,0,3.051H356.6Zm.763-.642h.4a.822.822,0,0,0,.883-.883.842.842,0,0,0-.883-.883h-.4Z" transform="translate(-264.657 -68.517)"/><path class="a" d="M369.663,72.411H368.9V69.4h.763Z" transform="translate(-272.019 -68.517)"/><path class="a" d="M377.744,69.3a1.713,1.713,0,0,1,1.084.4l-.4.522a1.138,1.138,0,0,0-.642-.241.852.852,0,0,0-.923.883.866.866,0,0,0,.883.883,2.015,2.015,0,0,0,.482-.08v-.4H377.5v-.562h1.445V71.95a1.794,1.794,0,0,1-1.2.482,1.587,1.587,0,0,1-1.646-1.566A1.5,1.5,0,0,1,377.744,69.3Z" transform="translate(-276.326 -68.457)"/><path class="a" d="M389.163,72.411H388.4V69.4h.763Z" transform="translate(-283.69 -68.517)"/><path class="a" d="M397.849,69.4v.642h-.843v2.409h-.763V70.042H395.4V69.4Z" transform="translate(-287.879 -68.517)"/><path class="a" d="M404.9,72.411l1.164-3.011h.723l1.2,3.011h-.8l-.2-.522H405.9l-.2.522Zm1.164-1.164h.723l-.361-1.044Z" transform="translate(-293.565 -68.517)"/><path class="a" d="M419.528,71.769v.642H417.4V69.4h.763v2.409h1.365Z" transform="translate(-301.046 -68.517)"/><path class="a" d="M427.8,72.411V69.4h2.088v.642h-1.325v.6h1.124v.6h-1.124v.562h1.325v.642H427.8Z" transform="translate(-307.271 -68.517)"/></g><g transform="translate(2.1 23.841)"><path class="a" d="M14.024,66.759H2.1L8.082,56.4Z" transform="translate(-2.1 -56.4)"/><path class="a" d="M8.082,56.4,2.1,66.759H14.024Zm0,0L2.1,66.759H14.024Z" transform="translate(-2.1 -56.4)"/></g><g transform="translate(27.354 23.841)"><path class="a" d="M76.924,66.759H65l2.971-5.179,1.445-2.529,1.526-2.65Z" transform="translate(-65 -56.4)"/><path class="a" d="M70.942,56.4l-1.526,2.65-1.486,2.529L65,66.759H76.924Zm0,0-1.526,2.65-1.486,2.529L65,66.759H76.924Z" transform="translate(-65 -56.4)"/></g><g transform="translate(8.403 12.921)"><path class="a" d="M29.724,39.518H17.8L23.782,29.2Z" transform="translate(-17.8 -29.2)"/></g><g transform="translate(21.01 12.921)"><path class="a" d="M61.165,39.518H49.2L55.182,29.2Z" transform="translate(-49.2 -29.2)"/><path class="a" d="M55.182,29.2,49.2,39.518H61.165Zm0,0L49.2,39.518H61.165Z" transform="translate(-49.2 -29.2)"/></g><g transform="translate(14.707 2)"><path class="a" d="M45.424,12.318H33.5L39.482,2Z" transform="translate(-33.5 -2)"/><path class="a" d="M39.482,2,33.5,12.318H45.424Zm0,0L33.5,12.318H45.424Z" transform="translate(-33.5 -2)"/></g><g transform="translate(8.403 23.641)"><path class="a" d="M29.724,55.9,23.782,66.259,17.8,55.9Z" transform="translate(-17.8 -55.9)"/><path class="a" d="M17.8,55.9l5.982,10.318L29.765,55.9Zm0,0,5.982,10.318L29.765,55.9Z" transform="translate(-17.8 -55.9)"/></g><g transform="translate(21.01 23.641)"><path class="a" d="M61.165,55.9,55.182,66.259,49.2,55.9Z" transform="translate(-49.2 -55.9)"/><path class="a" d="M55.544,66.459h0l2.971-5.179ZM49.2,55.9l5.982,10.318L61.165,55.9Zm0,0,5.982,10.318L61.165,55.9Z" transform="translate(-49.2 -55.9)"/></g><g transform="translate(14.707 12.72)"><path class="a" d="M45.424,28.7,39.482,39.018,33.5,28.7Z" transform="translate(-33.5 -28.7)"/><path class="a" d="M33.5,28.7l5.982,10.318L45.465,28.7Zm0,0,5.982,10.318L45.465,28.7Z" transform="translate(-33.5 -28.7)"/></g><g transform="translate(52.327 3.164)"><path class="a" d="M139.285,28.537a5.941,5.941,0,0,1-5.541,3.493,6.435,6.435,0,0,1-6.544-6.7,6.377,6.377,0,0,1,6.585-6.625,5.831,5.831,0,0,1,5.5,3.453V18.981h1.164V31.749h-1.164Zm.04-3.172a5.412,5.412,0,0,0-5.541-5.581,5.281,5.281,0,0,0-5.38,5.581,5.348,5.348,0,0,0,5.42,5.621A5.461,5.461,0,0,0,139.325,25.365Z" transform="translate(-127.2 -13.159)"/><path class="a" d="M180.785,20.277a5.941,5.941,0,0,1-5.541,3.493,6.435,6.435,0,0,1-6.544-6.7,6.377,6.377,0,0,1,6.585-6.625,5.831,5.831,0,0,1,5.5,3.453V4.9h1.164V23.489h-1.164V20.277Zm.04-3.172a5.412,5.412,0,0,0-5.541-5.581,5.281,5.281,0,0,0-5.38,5.581,5.348,5.348,0,0,0,5.42,5.621A5.461,5.461,0,0,0,180.825,17.105Z" transform="translate(-152.038 -4.9)"/><path class="a" d="M210.984,29.1a3.321,3.321,0,0,0,3.332,1.807c1.606,0,3.051-.883,3.051-2.409,0-.964-.6-1.847-2.048-2.329l-1.887-.6c-1.486-.4-3.051-1.325-3.051-3.332A3.694,3.694,0,0,1,214.4,18.7a3.888,3.888,0,0,1,3.694,2.409l-1.084.321a2.673,2.673,0,0,0-2.61-1.606,2.555,2.555,0,0,0-2.81,2.409c0,1.365,1.084,1.967,2.128,2.248l1.927.6c2.088.642,2.931,1.967,2.931,3.413,0,2.208-2.007,3.533-4.256,3.533a4.439,4.439,0,0,1-4.416-2.65Z" transform="translate(-176.696 -13.159)"/><path class="a" d="M261.605,18.7a6.778,6.778,0,0,1,6.745,6.7,6.725,6.725,0,1,1-6.745-6.7Zm0,12.286a5.6,5.6,0,1,0-5.46-5.581A5.493,5.493,0,0,0,261.605,30.986Z" transform="translate(-203.629 -13.159)"/><path class="a" d="M306.857,24.5c0-3.654-2.168-4.657-4.176-4.657-1.526,0-4.577,1.124-4.617,5.42v6.585H296.9V19.081h1.164v2.971a5.018,5.018,0,0,1,4.7-3.252c2.69,0,5.34,1.325,5.34,5.7v7.347h-1.164V24.5Z" transform="translate(-228.766 -13.219)"/><path class="a" d="M336.564,23.489H335.4V4.9h1.164Z" transform="translate(-251.808 -4.9)"/><path class="a" d="M349.823,5.7a.943.943,0,0,1,.923,1.044.93.93,0,1,1-1.847,0A.943.943,0,0,1,349.823,5.7Zm.6,18.268h-1.164V11.241h1.164Z" transform="translate(-259.888 -5.379)"/><path class="a" d="M374,24.5c0-3.654-2.168-4.657-4.176-4.657-1.526,0-4.577,1.124-4.617,5.42v6.585H364V19.081h1.164v2.971a5.018,5.018,0,0,1,4.7-3.252c2.69,0,5.34,1.325,5.34,5.7v7.347h-1.164V24.5Z" transform="translate(-268.926 -13.219)"/><path class="a" d="M412.106,29.942a7.147,7.147,0,0,1-5.26,2.088c-4.336,0-7.147-2.971-7.147-6.625a6.679,6.679,0,0,1,6.866-6.7c3.172,0,6.143,1.887,6.263,6.3H400.945a1.954,1.954,0,0,0-.04.482c0,3.051,2.329,5.46,5.942,5.46a6.515,6.515,0,0,0,4.537-1.767A6.664,6.664,0,0,0,412.106,29.942ZM401.065,24.08h10.519a4.757,4.757,0,0,0-5.019-4.3A5.494,5.494,0,0,0,401.065,24.08Z" transform="translate(-290.292 -13.159)"/></g></g></svg>