<svg aria-hidden="true" style="position: absolute; width: 0; height: 0; overflow: hidden;" version="1.1" xmlns="http://www.w3.org/2000/svg" xmlns:xlink="http://www.w3.org/1999/xlink">
<defs>

<symbol id="icon-logo-white" viewBox="0 0 172 32">
<path fill="#fff" style="fill: var(--color1, #fff)" d="M51.592 29.845l-0.638-1.596-0.119 1.636h-0.759l0.279-2.992h0.758l0.758 1.875 0.795-1.875h0.758l0.279 2.992h-0.758l-0.119-1.636-0.638 1.596z"></path>
<path fill="#fff" style="fill: var(--color1, #fff)" d="M55.422 29.885l1.157-2.992h0.718l1.193 2.992h-0.795l-0.199-0.519h-1.080l-0.199 0.519zM56.578 28.728h0.718l-0.359-1.038z"></path>
<path fill="#fff" style="fill: var(--color1, #fff)" d="M62.165 28.808c0.080 0.319 0.199 0.519 0.439 0.519 0.004 0 0.008 0 0.012 0 0.118 0 0.226-0.045 0.307-0.12l-0 0 0.239 0.519c-0.179 0.15-0.412 0.241-0.666 0.241-0.018 0-0.037-0-0.055-0.001l0.003 0c-0.718 0-0.958-0.758-0.994-1.077h-0.279v1.038h-0.762v-2.993h1.396c0.009-0 0.020-0 0.031-0 0.532 0 0.963 0.431 0.963 0.963 0 0.011-0 0.022-0.001 0.033l0-0.002c0 0.008 0 0.017 0 0.026 0 0.401-0.264 0.741-0.628 0.854l-0.006 0.002zM61.726 28.289c0.181-0.022 0.319-0.174 0.319-0.359s-0.139-0.337-0.318-0.359l-0.002-0h-0.522v0.758h0.519z"></path>
<path fill="#fff" style="fill: var(--color1, #fff)" d="M65.875 29.885h-0.758v-2.992h0.758v1.357l0.838-1.357h0.758v0.119l-0.877 1.317 0.319 0.638c0.16 0.319 0.24 0.319 0.397 0.319 0.075-0.017 0.142-0.045 0.202-0.081l-0.003 0.002c0.079 0.199 0.16 0.359 0.24 0.519-0.165 0.101-0.365 0.16-0.579 0.16-0.006 0-0.012-0-0.018-0h0.001c-0.405-0.010-0.746-0.27-0.875-0.631l-0.002-0.007-0.397-0.838z"></path>
<path fill="#fff" style="fill: var(--color1, #fff)" d="M69.666 29.885v-2.992h2.075v0.638h-1.317v0.596h1.117v0.596h-1.117v0.558h1.317v0.638h-2.075z"></path>
<path fill="#fff" style="fill: var(--color1, #fff)" d="M76.050 26.893v0.638h-0.838v2.394h-0.758v-2.394h-0.838v-0.638z"></path>
<path fill="#fff" style="fill: var(--color1, #fff)" d="M78.883 29.885h-0.758v-2.992h0.758z"></path>
<path fill="#fff" style="fill: var(--color1, #fff)" d="M81.875 28.21v1.676h-0.758v-2.992h0.596l1.193 1.636v-1.636h0.758v2.992h-0.596z"></path>
<path fill="#fff" style="fill: var(--color1, #fff)" d="M87.382 26.853c0.412 0.004 0.788 0.154 1.080 0.4l-0.003-0.002-0.397 0.519c-0.175-0.138-0.395-0.226-0.635-0.239l-0.003-0c-0.021-0.002-0.046-0.003-0.071-0.003-0.468 0-0.847 0.379-0.847 0.847 0 0.012 0 0.024 0.001 0.035l-0-0.002c-0 0.005-0 0.011-0 0.017 0 0.475 0.385 0.861 0.861 0.861 0.006 0 0.012-0 0.018-0h-0.001c0.174-0.008 0.337-0.036 0.493-0.083l-0.014 0.004v-0.398h-0.719v-0.558h1.436v1.237c-0.312 0.292-0.731 0.473-1.191 0.479h-0.001c-0.019 0.001-0.042 0.001-0.065 0.001-0.864 0-1.566-0.695-1.577-1.557v-0.001c-0-0.009-0-0.019-0-0.029 0-0.845 0.685-1.53 1.53-1.53 0.037 0 0.074 0.001 0.111 0.004l-0.005-0z"></path>
<path fill="#fff" style="fill: var(--color1, #fff)" d="M94.285 29.926c-0.596 0-1.117-0.319-1.117-0.878 0.028-0.422 0.32-0.768 0.712-0.876l0.007-0.002c-0.175-0.146-0.293-0.355-0.319-0.592l-0-0.004c0-0.519 0.479-0.718 0.917-0.718 0.020-0.002 0.043-0.003 0.066-0.003 0.409 0 0.743 0.317 0.771 0.719l0 0.002c-0.033 0.332-0.253 0.606-0.553 0.717l-0.006 0.002c0.119 0.119 0.199 0.239 0.319 0.359l0.319-0.398h0.638v0.119l-0.558 0.679c0.16 0.16 0.24 0.239 0.359 0.239 0.005 0 0.010 0 0.016 0 0.137 0 0.26-0.062 0.342-0.16l0.001-0.001 0.24 0.479c-0.163 0.165-0.388 0.271-0.636 0.279l-0.002 0c-0.319 0-0.397-0.16-0.596-0.359-0.197 0.244-0.496 0.398-0.831 0.398-0.031 0-0.062-0.001-0.093-0.004l0.004 0zM94.205 28.609c-0.175 0.056-0.302 0.21-0.319 0.396l-0 0.002c0 0.199 0.16 0.319 0.439 0.319 0.16-0.008 0.301-0.084 0.397-0.198l0.001-0.001zM94.404 27.93c0.16-0.079 0.279-0.199 0.279-0.319 0-0.132-0.107-0.239-0.24-0.239s-0.24 0.107-0.24 0.239v0c0.001 0.119 0.081 0.2 0.201 0.319z"></path>
<path fill="#fff" style="fill: var(--color1, #fff)" d="M101.427 28.888c0.046 0.231 0.247 0.403 0.488 0.403 0.025 0 0.049-0.002 0.073-0.005l-0.003 0c0.24 0 0.397-0.079 0.397-0.279 0-0.079-0.040-0.199-0.319-0.279l-0.319-0.119c-0.421-0.115-0.743-0.449-0.836-0.87l-0.001-0.008c0.014-0.514 0.434-0.926 0.951-0.926 0.045 0 0.089 0.003 0.132 0.009l-0.005-0.001c0.023-0.002 0.050-0.003 0.077-0.003 0.453 0 0.836 0.301 0.958 0.714l0.002 0.007-0.596 0.239c-0.068-0.183-0.238-0.312-0.438-0.319l-0.001-0c-0.199 0-0.319 0.079-0.319 0.239 0 0.079 0.040 0.199 0.279 0.279l0.319 0.119c0.679 0.199 0.838 0.596 0.838 0.917 0 0.638-0.558 0.917-1.157 0.917-0.037 0.004-0.079 0.007-0.122 0.007-0.542 0-0.991-0.398-1.070-0.918l-0.001-0.006z"></path>
<path fill="#fff" style="fill: var(--color1, #fff)" d="M107.372 26.893v0.638h-0.838v2.394h-0.758v-2.394h-0.838v-0.638z"></path>
<path fill="#fff" style="fill: var(--color1, #fff)" d="M111.162 28.808c0.079 0.319 0.199 0.519 0.439 0.519 0.004 0 0.008 0 0.012 0 0.118 0 0.226-0.045 0.307-0.12l-0 0 0.24 0.519c-0.179 0.15-0.412 0.241-0.666 0.241-0.018 0-0.037-0-0.055-0.001l0.003 0c-0.719 0-0.958-0.758-0.994-1.077h-0.279v1.038h-0.762v-2.993h1.396c0.009-0 0.020-0 0.031-0 0.532 0 0.963 0.431 0.963 0.963 0 0.011-0 0.022-0.001 0.033l0-0.002c0.001 0.017 0.002 0.036 0.002 0.056 0 0.394-0.267 0.726-0.63 0.824l-0.006 0.001zM110.723 28.289c0.181-0.022 0.319-0.174 0.319-0.359s-0.139-0.337-0.318-0.359l-0.002-0h-0.522v0.758h0.519z"></path>
<path fill="#fff" style="fill: var(--color1, #fff)" d="M113.796 29.885l1.157-2.992h0.719l1.193 2.992h-0.795l-0.199-0.519h-1.080l-0.199 0.519zM114.953 28.728h0.719l-0.359-1.038z"></path>
<path fill="#fff" style="fill: var(--color1, #fff)" d="M120.618 26.893v0.638h-0.838v2.394h-0.758v-2.394h-0.838v-0.638z"></path>
<path fill="#fff" style="fill: var(--color1, #fff)" d="M122.653 29.886v-2.993h2.075v0.638h-1.317v0.596h1.117v0.596h-1.117v0.558h1.317v0.638h-2.075zM124.329 26.015l-0.596 0.638h-0.483l0.359-0.638z"></path>
<path fill="#fff" style="fill: var(--color1, #fff)" d="M128.279 26.853c0.412 0.004 0.788 0.154 1.080 0.4l-0.003-0.002-0.398 0.519c-0.175-0.138-0.395-0.226-0.635-0.239l-0.003-0c-0.021-0.002-0.046-0.003-0.071-0.003-0.468 0-0.847 0.379-0.847 0.847 0 0.012 0 0.024 0.001 0.035l-0-0.002c-0 0.005-0 0.011-0 0.017 0 0.475 0.385 0.861 0.861 0.861 0.006 0 0.012-0 0.018-0h-0.001c0.174-0.008 0.337-0.036 0.493-0.083l-0.014 0.004v-0.398h-0.719v-0.558h1.436v1.237c-0.312 0.292-0.731 0.473-1.191 0.479h-0.001c-0.018 0.001-0.038 0.001-0.059 0.001-0.864 0-1.566-0.695-1.577-1.556v-0.001c-0-0.009-0-0.019-0-0.029 0-0.845 0.685-1.53 1.53-1.53 0.035 0 0.070 0.001 0.104 0.003l-0.005-0z"></path>
<path fill="#fff" style="fill: var(--color1, #fff)" d="M132.35 29.885h-0.758v-2.992h0.758z"></path>
<path fill="#fff" style="fill: var(--color1, #fff)" d="M134.624 29.885v-2.992h2.075v0.638h-1.317v0.596h1.117v0.596h-1.117v0.558h1.317v0.638h-2.075z"></path>
<path fill="#fff" style="fill: var(--color1, #fff)" d="M141.447 29.885v-2.992h1.317c0.821 0.022 1.478 0.692 1.478 1.516s-0.657 1.494-1.476 1.516l-0.002 0h-1.317zM142.205 29.247h0.398c0.019 0.002 0.041 0.002 0.063 0.002 0.451 0 0.817-0.366 0.817-0.817 0-0.022-0.001-0.044-0.003-0.066l0 0.003c0.001-0.012 0.001-0.027 0.001-0.042 0-0.462-0.375-0.837-0.837-0.837-0.015 0-0.029 0-0.044 0.001l0.002-0h-0.398z"></path>
<path fill="#fff" style="fill: var(--color1, #fff)" d="M147.113 29.885h-0.758v-2.992h0.758z"></path>
<path fill="#fff" style="fill: var(--color1, #fff)" d="M150.863 26.853c0.412 0.004 0.788 0.154 1.080 0.4l-0.003-0.002-0.398 0.519c-0.175-0.138-0.395-0.226-0.635-0.239l-0.003-0c-0.021-0.002-0.046-0.003-0.071-0.003-0.468 0-0.847 0.379-0.847 0.847 0 0.012 0 0.024 0.001 0.035l-0-0.002c-0 0.005-0 0.011-0 0.017 0 0.475 0.385 0.861 0.861 0.861 0.006 0 0.012-0 0.018-0h-0.001c0.174-0.008 0.337-0.036 0.493-0.083l-0.014 0.004v-0.398h-0.723v-0.558h1.436v1.237c-0.312 0.292-0.731 0.473-1.191 0.479h-0.001c-0.018 0.001-0.038 0.001-0.059 0.001-0.864 0-1.566-0.695-1.577-1.556v-0.001c-0.001-0.022-0.002-0.047-0.002-0.073 0-0.823 0.667-1.491 1.491-1.491 0.051 0 0.102 0.003 0.152 0.008l-0.006-0.001z"></path>
<path fill="#fff" style="fill: var(--color1, #fff)" d="M154.893 29.885h-0.758v-2.992h0.758z"></path>
<path fill="#fff" style="fill: var(--color1, #fff)" d="M159.362 26.893v0.638h-0.838v2.394h-0.758v-2.394h-0.838v-0.638z"></path>
<path fill="#fff" style="fill: var(--color1, #fff)" d="M160.719 29.885l1.157-2.992h0.719l1.193 2.992h-0.795l-0.199-0.519h-1.080l-0.199 0.519zM161.875 28.728h0.719l-0.359-1.038z"></path>
<path fill="#fff" style="fill: var(--color1, #fff)" d="M167.821 29.247v0.638h-2.115v-2.992h0.758v2.394h1.357z"></path>
<path fill="#fff" style="fill: var(--color1, #fff)" d="M169.855 29.885v-2.992h2.075v0.638h-1.317v0.596h1.117v0.596h-1.117v0.558h1.317v0.638h-2.075z"></path>
<path fill="#fff" style="fill: var(--color1, #fff)" d="M11.85 32h-11.85l5.945-10.295z"></path>
<path fill="#fff" style="fill: var(--color1, #fff)" d="M5.945 21.705l-5.945 10.295h11.85zM5.945 21.705l-5.945 10.295h11.85z"></path>
<path fill="#fff" style="fill: var(--color1, #fff)" d="M36.947 32h-11.85l2.953-5.147 1.436-2.513 1.517-2.634z"></path>
<path fill="#fff" style="fill: var(--color1, #fff)" d="M31.002 21.705l-1.517 2.634-1.477 2.513-2.912 5.148h11.85zM31.002 21.705l-1.517 2.634-1.477 2.513-2.912 5.148h11.85z"></path>
<path fill="#fff" style="fill: var(--color1, #fff)" d="M18.114 21.107h-11.85l5.945-10.254z"></path>
<path fill="#fff" style="fill: var(--color1, #fff)" d="M30.683 21.107h-11.891l5.945-10.254z"></path>
<path fill="#fff" style="fill: var(--color1, #fff)" d="M24.737 10.853l-5.945 10.254h11.891zM24.737 10.853l-5.945 10.254h11.891z"></path>
<path fill="#fff" style="fill: var(--color1, #fff)" d="M24.379 10.254h-11.85l5.945-10.254z"></path>
<path fill="#fff" style="fill: var(--color1, #fff)" d="M18.474 0l-5.945 10.254h11.85zM18.474 0l-5.945 10.254h11.85z"></path>
<path fill="#fff" style="fill: var(--color1, #fff)" d="M18.114 21.507l-5.905 10.295-5.945-10.295z"></path>
<path fill="#fff" style="fill: var(--color1, #fff)" d="M6.264 21.507l5.945 10.254 5.946-10.254zM6.264 21.507l5.945 10.254 5.946-10.254z"></path>
<path fill="#fff" style="fill: var(--color1, #fff)" d="M30.683 21.507l-5.946 10.295-5.945-10.295z"></path>
<path fill="#fff" style="fill: var(--color1, #fff)" d="M25.097 32v0l2.953-5.147zM18.793 21.507l5.945 10.254 5.946-10.254zM18.793 21.507l5.945 10.254 5.946-10.254z"></path>
<path fill="#fff" style="fill: var(--color1, #fff)" d="M24.379 10.653l-5.905 10.254-5.945-10.254z"></path>
<path fill="#fff" style="fill: var(--color1, #fff)" d="M12.529 10.653l5.945 10.254 5.946-10.254zM12.529 10.653l5.945 10.254 5.946-10.254z"></path>
<path fill="#fff" style="fill: var(--color1, #fff)" d="M61.925 16.439c-0.95 2.065-3.001 3.473-5.38 3.473-0.044 0-0.089-0-0.133-0.001l0.007 0c-0.034 0.001-0.074 0.001-0.114 0.001-3.532 0-6.395-2.863-6.395-6.395 0-0.093 0.002-0.185 0.006-0.277l-0 0.013c-0.003-0.075-0.005-0.162-0.005-0.25 0-3.5 2.837-6.337 6.337-6.337 0.074 0 0.149 0.001 0.222 0.004l-0.011-0c0.052-0.002 0.113-0.003 0.174-0.003 2.346 0 4.366 1.394 5.277 3.398l0.015 0.036v-3.157h1.157v12.689h-1.157zM61.965 13.287c0.002-0.051 0.003-0.11 0.003-0.17 0-2.97-2.408-5.378-5.378-5.378-0.046 0-0.092 0.001-0.138 0.002l0.007-0c-0.032-0.001-0.069-0.001-0.107-0.001-2.898 0-5.248 2.35-5.248 5.248 0 0.105 0.003 0.21 0.009 0.314l-0.001-0.014c-0.004 0.081-0.007 0.176-0.007 0.272 0 2.935 2.38 5.315 5.315 5.315 0.028 0 0.055-0 0.083-0.001l-0.004 0c0.013 0 0.027 0 0.042 0 2.997 0 5.427-2.43 5.427-5.427 0-0.056-0.001-0.112-0.003-0.167l0 0.008z"></path>
<path fill="#fff" style="fill: var(--color1, #fff)" d="M78.483 16.438c-0.95 2.065-3.001 3.473-5.38 3.473-0.044 0-0.089-0-0.133-0.001l0.007 0c-0.034 0.001-0.074 0.001-0.114 0.001-3.532 0-6.395-2.863-6.395-6.395 0-0.093 0.002-0.185 0.006-0.277l-0 0.013c-0.003-0.075-0.005-0.162-0.005-0.25 0-3.5 2.837-6.337 6.337-6.337 0.074 0 0.149 0.001 0.222 0.004l-0.011-0c0.052-0.002 0.113-0.003 0.174-0.003 2.346 0 4.366 1.394 5.277 3.398l0.015 0.036v-8.942h1.157v18.474h-1.157v-3.192zM78.523 13.286c0.002-0.051 0.003-0.11 0.003-0.17 0-2.97-2.408-5.378-5.378-5.378-0.046 0-0.092 0.001-0.138 0.002l0.007-0c-0.032-0.001-0.069-0.001-0.107-0.001-2.898 0-5.248 2.35-5.248 5.248 0 0.105 0.003 0.21 0.009 0.314l-0.001-0.014c-0.004 0.081-0.007 0.176-0.007 0.272 0 2.935 2.379 5.315 5.315 5.315 0.028 0 0.055-0 0.083-0.001l-0.004 0c0.013 0 0.027 0 0.042 0 2.997 0 5.427-2.43 5.427-5.427 0-0.056-0.001-0.112-0.003-0.167l0 0.008z"></path>
<path fill="#fff" style="fill: var(--color1, #fff)" d="M83.99 16.999c0.555 1.086 1.666 1.816 2.948 1.816 0.128 0 0.255-0.007 0.379-0.021l-0.015 0.001c1.596 0 3.032-0.878 3.032-2.394 0-0.958-0.596-1.836-2.035-2.315l-1.875-0.596c-1.477-0.398-3.032-1.317-3.032-3.311 0.078-1.966 1.691-3.53 3.668-3.53 0.115 0 0.228 0.005 0.34 0.016l-0.014-0.001c0.029-0.001 0.063-0.001 0.097-0.001 1.604 0 2.98 0.978 3.564 2.37l0.009 0.025-1.077 0.319c-0.419-0.95-1.352-1.601-2.438-1.601-0.055 0-0.11 0.002-0.164 0.005l0.007-0c-0.077-0.008-0.166-0.013-0.257-0.013-1.356 0-2.464 1.063-2.535 2.401l-0 0.006c0 1.357 1.077 1.955 2.115 2.234l1.915 0.596c2.075 0.638 2.913 1.955 2.913 3.392 0 2.194-1.995 3.511-4.23 3.511-0.103 0.009-0.224 0.014-0.345 0.014-1.798 0-3.345-1.076-4.032-2.619l-0.011-0.028z"></path>
<path fill="#fff" style="fill: var(--color1, #fff)" d="M107.531 6.663c3.679 0.018 6.659 2.983 6.703 6.654l0 0.004c0 0.007 0 0.016 0 0.025 0 3.691-2.992 6.683-6.683 6.683s-6.683-2.992-6.683-6.683c0-3.684 2.981-6.672 6.662-6.683h0.001zM107.531 18.873c0.041 0.001 0.090 0.002 0.139 0.002 3.074 0 5.565-2.492 5.565-5.565s-2.492-5.565-5.565-5.565c-3.074 0-5.565 2.492-5.565 5.565 0 0.006 0 0.012 0 0.018v-0.001c-0 0.026-0.001 0.057-0.001 0.088 0 3.004 2.426 5.441 5.425 5.459h0.002z"></path>
<path fill="#fff" style="fill: var(--color1, #fff)" d="M127.521 12.368c0-3.631-2.155-4.628-4.15-4.628-1.517 0-4.549 1.117-4.588 5.386v6.544h-1.157v-12.688h1.157v2.953c0.731-1.904 2.544-3.232 4.668-3.232 0.001 0 0.002 0 0.003 0h-0c2.673 0 5.307 1.317 5.307 5.665v7.301h-1.157v-7.301z"></path>
<path fill="#fff" style="fill: var(--color1, #fff)" d="M134.145 19.63h-1.157v-18.474h1.157z"></path>
<path fill="#fff" style="fill: var(--color1, #fff)" d="M139.291 1.476c0.511 0.008 0.923 0.425 0.923 0.937 0 0.035-0.002 0.070-0.006 0.105l0-0.004c0.004 0.033 0.006 0.071 0.006 0.109 0 0.51-0.414 0.924-0.924 0.924s-0.924-0.414-0.924-0.924c0-0.038 0.002-0.076 0.007-0.114l-0 0.004c-0.003-0.030-0.005-0.065-0.005-0.1 0-0.513 0.412-0.929 0.923-0.937h0.001zM139.888 19.63h-1.157v-12.648h1.157z"></path>
<path fill="#fff" style="fill: var(--color1, #fff)" d="M154.336 12.368c0-3.631-2.155-4.628-4.15-4.628-1.517 0-4.549 1.117-4.588 5.386v6.544h-1.2v-12.688h1.157v2.953c0.731-1.904 2.544-3.232 4.668-3.232 0.001 0 0.002 0 0.003 0h-0c2.673 0 5.307 1.317 5.307 5.665v7.301h-1.157v-7.301z"></path>
<path fill="#fff" style="fill: var(--color1, #fff)" d="M170.972 17.836c-1.285 1.284-3.060 2.078-5.020 2.078-0.073 0-0.146-0.001-0.218-0.003l0.011 0c-4.309 0-7.103-2.953-7.103-6.584-0-0.007-0-0.015-0-0.023 0-3.666 2.972-6.638 6.637-6.638 0.065 0 0.131 0.001 0.195 0.003l-0.010-0c3.152 0 6.105 1.875 6.224 6.261h-11.809c-0.026 0.12-0.041 0.258-0.041 0.399 0 0.028 0.001 0.056 0.002 0.084l-0-0.004c0 3.032 2.315 5.426 5.905 5.426 0.022 0 0.049 0 0.075 0 1.717 0 3.278-0.669 4.437-1.76l-0.003 0.003c0.224 0.276 0.459 0.524 0.712 0.752l0.006 0.005zM160 12.010h10.454c-0.235-2.412-2.252-4.282-4.706-4.282-0.099 0-0.197 0.003-0.295 0.009l0.013-0.001c-0.041-0.001-0.088-0.002-0.136-0.002-2.595 0-4.768 1.811-5.323 4.238l-0.007 0.037z"></path>
</symbol>

<symbol id="icon-facebook" viewBox="0 0 17 32">
<path fill="#3c5a9a" style="fill: var(--color2, #3c5a9a)" d="M10.787 32v-14.596h4.9l0.733-5.689h-5.633v-3.633c0-1.647 0.457-2.77 2.819-2.77h3.012v-5.089c-1.274-0.143-2.751-0.224-4.247-0.224-0.050 0-0.1 0-0.15 0l0.008-0c-4.343 0-7.317 2.651-7.317 7.519v4.195h-4.912v5.689h4.912v14.596h5.874z"></path>
</symbol>

<symbol id="icon-google" viewBox="0 0 31 32">
<path fill="#4285f4" style="fill: var(--color3, #4285f4)" d="M31.36 16.355c0.001-0.070 0.002-0.153 0.002-0.237 0-1.076-0.124-2.123-0.358-3.127l0.018 0.093h-15.022v5.938h8.818c-0.356 2.163-1.557 3.994-3.246 5.175l-0.025 0.017-0.030 0.199 4.75 3.679 0.329 0.033c3.022-2.791 4.765-6.896 4.765-11.769z"></path>
<path fill="#34a853" style="fill: var(--color4, #34a853)" d="M16 32c4.32 0 7.946-1.422 10.595-3.875l-5.049-3.912c-1.48 1.005-3.307 1.604-5.273 1.604-0.096 0-0.192-0.001-0.287-0.004l0.014 0c-4.23-0.026-7.812-2.775-9.082-6.581l-0.020-0.068-0.188 0.016-4.939 3.822-0.065 0.179c2.687 5.271 8.075 8.818 14.29 8.818 0.001 0 0.001 0 0.002 0h-0z"></path>
<path fill="#fbbc05" style="fill: var(--color5, #fbbc05)" d="M6.896 19.164c-0.334-0.943-0.529-2.030-0.533-3.163v-0.002c0.007-1.134 0.195-2.221 0.537-3.237l-0.021 0.073-0.009-0.212-5-3.883-0.164 0.078c-1.076 2.091-1.707 4.563-1.707 7.182s0.631 5.091 1.748 7.272l-0.042-0.090 5.191-4.018z"></path>
<path fill="#eb4335" style="fill: var(--color6, #eb4335)" d="M16 6.186c0.041-0.001 0.089-0.001 0.137-0.001 2.341 0 4.469 0.907 6.054 2.388l-0.005-0.005 4.517-4.409c-2.742-2.578-6.445-4.161-10.518-4.161-0.065 0-0.13 0-0.195 0.001l0.010-0c-0.001 0-0.002 0-0.003 0-6.216 0-11.603 3.547-14.248 8.727l-0.042 0.090 5.173 4.018c1.302-3.873 4.887-6.619 9.117-6.649l0.004-0z"></path>
</symbol>
<symbol id="icon-logo" viewBox="0 0 167 32">
<path fill="#282828" style="fill: var(--color7, #282828)" d="M50.528 29.491l-0.617-1.544-0.116 1.582h-0.734l0.27-2.895h0.734l0.734 1.814 0.772-1.814h0.734l0.27 2.895h-0.734l-0.116-1.582-0.617 1.544z"></path>
<path fill="#282828" style="fill: var(--color7, #282828)" d="M54.234 29.529l1.12-2.895h0.693l1.158 2.895h-0.772l-0.193-0.502h-1.039l-0.193 0.502zM55.353 28.41h0.693l-0.346-1.004z"></path>
<path fill="#282828" style="fill: var(--color7, #282828)" d="M60.758 28.488c0.077 0.309 0.193 0.502 0.425 0.502 0.004 0 0.008 0 0.012 0 0.115 0 0.219-0.044 0.297-0.116l-0 0 0.231 0.502c-0.173 0.145-0.398 0.233-0.644 0.233-0.017 0-0.034-0-0.051-0.001l0.002 0c-0.693 0-0.926-0.734-0.965-1.039h-0.27v1.004h-0.736v-2.898h1.351c0.010-0 0.022-0.001 0.034-0.001 0.515 0 0.932 0.417 0.932 0.932 0 0.012-0 0.024-0.001 0.036l0-0.002c0 0.005 0 0.012 0 0.018 0 0.39-0.257 0.72-0.611 0.83l-0.006 0.002zM60.333 27.986c0.191 0 0.346-0.155 0.346-0.346s-0.155-0.346-0.346-0.346v0h-0.502v0.731h0.502z"></path>
<path fill="#282828" style="fill: var(--color7, #282828)" d="M64.348 29.529h-0.734v-2.895h0.734v1.312l0.811-1.312h0.734v0.116l-0.849 1.274 0.309 0.617c0.154 0.309 0.231 0.309 0.386 0.309 0.073-0.017 0.138-0.043 0.196-0.079l-0.003 0.002c0.077 0.193 0.154 0.346 0.231 0.502-0.16 0.097-0.353 0.155-0.559 0.155-0.007 0-0.014-0-0.021-0h0.001c-0.392-0.009-0.722-0.261-0.847-0.611l-0.002-0.006-0.386-0.811z"></path>
<path fill="#282828" style="fill: var(--color7, #282828)" d="M68.014 29.529v-2.895h2.009v0.617h-1.274v0.579h1.081v0.579h-1.081v0.54h1.274v0.617h-2.009z"></path>
<path fill="#282828" style="fill: var(--color7, #282828)" d="M74.191 26.634v0.617h-0.811v2.316h-0.734v-2.316h-0.811v-0.617z"></path>
<path fill="#282828" style="fill: var(--color7, #282828)" d="M76.932 29.529h-0.734v-2.895h0.734z"></path>
<path fill="#282828" style="fill: var(--color7, #282828)" d="M79.826 27.908v1.621h-0.734v-2.895h0.579l1.158 1.582v-1.582h0.734v2.895h-0.579z"></path>
<path fill="#282828" style="fill: var(--color7, #282828)" d="M85.153 26.596c0.397 0.005 0.76 0.15 1.042 0.388l-0.002-0.002-0.386 0.502c-0.169-0.134-0.382-0.219-0.615-0.231l-0.003-0c-0.021-0.002-0.045-0.003-0.069-0.003-0.453 0-0.82 0.367-0.82 0.82 0 0.012 0 0.023 0.001 0.034l-0-0.002c-0 0.005-0 0.012-0 0.018 0 0.459 0.372 0.831 0.831 0.831 0.006 0 0.013-0 0.019-0l-0.001 0c0.168-0.007 0.326-0.035 0.477-0.080l-0.014 0.004v-0.387h-0.693v-0.54h1.39v1.196c-0.303 0.283-0.71 0.459-1.157 0.463h-0.001c-0.017 0.001-0.037 0.001-0.058 0.001-0.836 0-1.514-0.672-1.524-1.506v-0.001c-0-0.008-0-0.018-0-0.028 0-0.818 0.663-1.481 1.481-1.481 0.036 0 0.071 0.001 0.106 0.004l-0.005-0z"></path>
<path fill="#282828" style="fill: var(--color7, #282828)" d="M91.831 29.568c-0.579 0-1.081-0.309-1.081-0.849 0.026-0.407 0.308-0.742 0.686-0.848l0.007-0.002c-0.17-0.142-0.285-0.345-0.309-0.575l-0-0.004c0-0.502 0.463-0.693 0.887-0.693 0.019-0.002 0.042-0.003 0.064-0.003 0.395 0 0.718 0.306 0.746 0.693l0 0.002c-0.033 0.321-0.246 0.584-0.535 0.691l-0.006 0.002c0.116 0.116 0.193 0.231 0.309 0.346l0.309-0.386h0.617v0.116l-0.54 0.656c0.154 0.154 0.231 0.231 0.346 0.231 0.004 0 0.010 0 0.015 0 0.133 0 0.252-0.060 0.331-0.154l0.001-0.001 0.231 0.463c-0.158 0.16-0.375 0.262-0.616 0.27l-0.002 0c-0.309 0-0.386-0.154-0.579-0.346-0.19 0.239-0.482 0.391-0.808 0.391-0.026 0-0.053-0.001-0.079-0.003l0.003 0zM91.754 28.294c-0.17 0.055-0.293 0.204-0.309 0.384l-0 0.002c0 0.193 0.154 0.309 0.425 0.309 0.156-0.008 0.292-0.081 0.385-0.192l0.001-0.001zM91.947 27.637c0.154-0.077 0.27-0.193 0.27-0.309 0-0.128-0.104-0.232-0.232-0.232s-0.232 0.104-0.232 0.232v0c0 0.116 0.077 0.193 0.193 0.306z"></path>
<path fill="#282828" style="fill: var(--color7, #282828)" d="M98.74 28.566c0.044 0.224 0.239 0.391 0.472 0.391 0.024 0 0.048-0.002 0.071-0.005l-0.003 0c0.231 0 0.386-0.077 0.386-0.27 0-0.077-0.039-0.193-0.309-0.27l-0.309-0.116c-0.408-0.111-0.719-0.435-0.809-0.842l-0.001-0.008c0.013-0.498 0.419-0.896 0.919-0.896 0.042 0 0.084 0.003 0.125 0.008l-0.005-0.001c0.022-0.002 0.048-0.003 0.074-0.003 0.438 0 0.808 0.29 0.929 0.689l0.002 0.007-0.579 0.231c-0.065-0.177-0.23-0.302-0.424-0.309l-0.001-0c-0.193 0-0.309 0.077-0.309 0.231 0 0.077 0.039 0.193 0.27 0.27l0.309 0.116c0.656 0.193 0.811 0.579 0.811 0.888 0 0.617-0.54 0.888-1.12 0.888-0.037 0.005-0.079 0.007-0.123 0.007-0.525 0-0.959-0.386-1.035-0.89l-0.001-0.006z"></path>
<path fill="#282828" style="fill: var(--color7, #282828)" d="M104.493 26.634v0.617h-0.811v2.316h-0.734v-2.316h-0.811v-0.617z"></path>
<path fill="#282828" style="fill: var(--color7, #282828)" d="M108.159 28.488c0.077 0.309 0.193 0.502 0.425 0.502 0.004 0 0.008 0 0.012 0 0.115 0 0.219-0.044 0.297-0.116l-0 0 0.231 0.502c-0.173 0.145-0.398 0.233-0.644 0.233-0.017 0-0.034-0-0.051-0.001l0.002 0c-0.693 0-0.926-0.734-0.965-1.039h-0.27v1.004h-0.736v-2.898h1.351c0.010-0 0.022-0.001 0.034-0.001 0.515 0 0.932 0.417 0.932 0.932 0 0.012-0 0.024-0.001 0.036l0-0.002c0.001 0.015 0.001 0.032 0.001 0.050 0 0.383-0.26 0.704-0.613 0.798l-0.006 0.001zM107.734 27.986c0.191 0 0.346-0.155 0.346-0.346s-0.155-0.346-0.346-0.346v0h-0.502v0.731h0.502z"></path>
<path fill="#282828" style="fill: var(--color7, #282828)" d="M110.707 29.529l1.12-2.895h0.693l1.158 2.895h-0.772l-0.193-0.502h-1.039l-0.193 0.502zM111.826 28.41h0.693l-0.346-1.004z"></path>
<path fill="#282828" style="fill: var(--color7, #282828)" d="M117.308 26.634v0.617h-0.811v2.316h-0.734v-2.316h-0.811v-0.617z"></path>
<path fill="#282828" style="fill: var(--color7, #282828)" d="M119.276 29.526v-2.892h2.009v0.617h-1.274v0.579h1.081v0.579h-1.081v0.54h1.274v0.617h-2.009zM120.897 25.785l-0.579 0.617h-0.463l0.346-0.617z"></path>
<path fill="#282828" style="fill: var(--color7, #282828)" d="M124.718 26.596c0.397 0.005 0.76 0.15 1.042 0.388l-0.002-0.002-0.386 0.502c-0.169-0.134-0.382-0.219-0.615-0.231l-0.003-0c-0.021-0.002-0.044-0.003-0.069-0.003-0.453 0-0.82 0.367-0.82 0.82 0 0.012 0 0.023 0.001 0.034l-0-0.002c-0 0.005-0 0.012-0 0.018 0 0.459 0.372 0.831 0.831 0.831 0.006 0 0.013-0 0.019-0l-0.001 0c0.168-0.007 0.326-0.035 0.477-0.080l-0.014 0.004v-0.387h-0.693v-0.54h1.39v1.196c-0.303 0.283-0.71 0.459-1.157 0.463h-0.001c-0.017 0.001-0.038 0.001-0.058 0.001-0.836 0-1.514-0.672-1.524-1.506v-0.001c-0-0.008-0-0.018-0-0.028 0-0.818 0.663-1.481 1.481-1.481 0.036 0 0.071 0.001 0.106 0.004l-0.005-0z"></path>
<path fill="#282828" style="fill: var(--color7, #282828)" d="M128.656 29.529h-0.734v-2.895h0.734z"></path>
<path fill="#282828" style="fill: var(--color7, #282828)" d="M130.856 29.529v-2.895h2.009v0.617h-1.274v0.579h1.081v0.579h-1.081v0.54h1.274v0.617h-2.009z"></path>
<path fill="#282828" style="fill: var(--color7, #282828)" d="M137.457 29.529v-2.895h1.274c0.81 0 1.467 0.657 1.467 1.467s-0.657 1.467-1.467 1.467v0h-1.274zM138.19 28.912h0.386c0.018 0.002 0.040 0.002 0.061 0.002 0.437 0 0.79-0.354 0.79-0.79 0-0.022-0.001-0.043-0.003-0.064l0 0.003c0.001-0.012 0.001-0.026 0.001-0.041 0-0.447-0.363-0.81-0.81-0.81-0.014 0-0.028 0-0.042 0.001l0.002-0h-0.386z"></path>
<path fill="#282828" style="fill: var(--color7, #282828)" d="M142.939 29.529h-0.734v-2.895h0.734z"></path>
<path fill="#282828" style="fill: var(--color7, #282828)" d="M146.567 26.596c0.397 0.005 0.76 0.15 1.042 0.388l-0.002-0.002-0.386 0.502c-0.169-0.134-0.382-0.219-0.614-0.231l-0.003-0c-0.021-0.002-0.045-0.003-0.069-0.003-0.453 0-0.82 0.367-0.82 0.82 0 0.012 0 0.023 0.001 0.034l-0-0.002c-0 0.005-0 0.012-0 0.018 0 0.459 0.372 0.831 0.831 0.831 0.006 0 0.013-0 0.019-0l-0.001 0c0.168-0.007 0.326-0.035 0.477-0.080l-0.014 0.004v-0.387h-0.693v-0.54h1.39v1.196c-0.303 0.283-0.71 0.459-1.157 0.463h-0.001c-0.017 0.001-0.038 0.001-0.058 0.001-0.836 0-1.514-0.672-1.524-1.506v-0.001c-0.001-0.022-0.002-0.047-0.002-0.073 0-0.795 0.645-1.44 1.44-1.44 0.051 0 0.102 0.003 0.151 0.008l-0.006-0.001z"></path>
<path fill="#282828" style="fill: var(--color7, #282828)" d="M150.466 29.529h-0.734v-2.895h0.734z"></path>
<path fill="#282828" style="fill: var(--color7, #282828)" d="M154.79 26.634v0.617h-0.811v2.316h-0.734v-2.316h-0.811v-0.617z"></path>
<path fill="#282828" style="fill: var(--color7, #282828)" d="M156.101 29.529l1.12-2.895h0.693l1.158 2.895h-0.772l-0.193-0.502h-1.039l-0.193 0.502zM157.221 28.41h0.693l-0.346-1.004z"></path>
<path fill="#282828" style="fill: var(--color7, #282828)" d="M162.972 28.912v0.617h-2.046v-2.894h0.734v2.316h1.312z"></path>
<path fill="#282828" style="fill: var(--color7, #282828)" d="M164.94 29.529v-2.895h2.009v0.617h-1.274v0.579h1.081v0.579h-1.081v0.54h1.274v0.617h-2.009z"></path>
<path fill="#6b5aed" style="fill: var(--color8, #6b5aed)" d="M6.176 21.307l6.137 10.693h-12.314z"></path>
<path fill="#6b5aed" style="fill: var(--color8, #6b5aed)" d="M30.804 21.307l6.137 10.693h-12.314z"></path>
<path fill="#6b5aed" style="fill: var(--color8, #6b5aed)" d="M12.314 10.654l6.176 10.654h-12.314z"></path>
<path fill="#282828" style="fill: var(--color7, #282828)" d="M24.627 10.654l6.176 10.654h-12.314z"></path>
<path fill="#6b5aed" style="fill: var(--color8, #6b5aed)" d="M18.49 0l6.137 10.654h-12.314z"></path>
<path fill="#5ddcea" style="fill: var(--color9, #5ddcea)" d="M6.176 21.307h12.314l-6.176 10.693z"></path>
<path fill="#5ddcea" style="fill: var(--color9, #5ddcea)" d="M18.49 21.307h12.314l-6.176 10.693z"></path>
<path fill="#4c3fa8" style="fill: var(--color10, #4c3fa8)" d="M12.314 10.654h12.314l-6.137 10.654z"></path>
<path fill="#282828" style="fill: var(--color7, #282828)" d="M60.526 16.521c-0.919 1.997-2.903 3.359-5.205 3.359-0.043 0-0.086-0-0.129-0.001l0.006 0c-0.033 0.001-0.071 0.001-0.11 0.001-3.417 0-6.187-2.77-6.187-6.187 0-0.090 0.002-0.18 0.006-0.269l-0 0.013c-0.003-0.072-0.005-0.156-0.005-0.241 0-3.386 2.745-6.131 6.131-6.131 0.072 0 0.143 0.001 0.215 0.004l-0.010-0c0.050-0.002 0.109-0.003 0.169-0.003 2.269 0 4.223 1.348 5.105 3.287l0.014 0.035v-3.048h1.12v12.27h-1.12zM60.564 13.473c0.002-0.049 0.003-0.107 0.003-0.164 0-2.873-2.329-5.203-5.203-5.203-0.045 0-0.089 0.001-0.133 0.002l0.007-0c-3.204 0-5.172 2.432-5.172 5.366 0 3.011 2.085 5.404 5.211 5.404 0.012 0 0.026 0 0.040 0 2.9 0 5.251-2.351 5.251-5.251 0-0.054-0.001-0.109-0.002-0.163l0 0.008z"></path>
<path fill="#282828" style="fill: var(--color7, #282828)" d="M76.545 16.521c-0.919 1.997-2.903 3.359-5.205 3.359-0.043 0-0.086-0-0.129-0.001l0.006 0c-0.033 0.001-0.071 0.001-0.11 0.001-3.417 0-6.187-2.77-6.187-6.187 0-0.090 0.002-0.18 0.006-0.269l-0 0.013c-0.003-0.072-0.005-0.156-0.005-0.241 0-3.386 2.745-6.131 6.131-6.131 0.072 0 0.143 0.001 0.215 0.004l-0.010-0c0.050-0.002 0.109-0.003 0.169-0.003 2.269 0 4.223 1.348 5.105 3.287l0.014 0.035v-8.65h1.12v17.874h-1.12zM76.584 13.473c0.002-0.049 0.003-0.107 0.003-0.164 0-2.873-2.329-5.203-5.203-5.203-0.045 0-0.089 0.001-0.133 0.002l0.007-0c-3.204 0-5.172 2.432-5.172 5.366 0 3.011 2.085 5.404 5.211 5.404 0.012 0 0.026 0 0.040 0 2.9 0 5.251-2.351 5.251-5.251 0-0.054-0.001-0.109-0.002-0.163l0 0.008z"></path>
<path fill="#282828" style="fill: var(--color7, #282828)" d="M81.868 17.061c0.463 1.158 1.699 1.737 3.204 1.737 1.544 0 2.934-0.849 2.934-2.316 0-0.926-0.579-1.776-1.969-2.239l-1.814-0.579c-1.429-0.386-2.934-1.274-2.934-3.204 0-1.663 1.351-3.395 3.86-3.395 0.027-0.001 0.059-0.001 0.092-0.001 1.553 0 2.884 0.946 3.45 2.293l0.009 0.025-1.039 0.309c-0.405-0.919-1.308-1.549-2.358-1.549-0.053 0-0.106 0.002-0.158 0.005l0.007-0c-1.737 0-2.702 1.158-2.702 2.316 0 1.312 1.039 1.891 2.046 2.162l1.853 0.579c2.009 0.617 2.818 1.891 2.818 3.281 0 2.123-1.93 3.395-4.092 3.395-2.009 0-3.628-0.926-4.246-2.547z"></path>
<path fill="#282828" style="fill: var(--color7, #282828)" d="M104.643 7.064c3.56 0.017 6.444 2.887 6.485 6.439l0 0.004c0 0.007 0 0.015 0 0.023 0 3.571-2.895 6.466-6.466 6.466s-6.466-2.895-6.466-6.466c0-3.564 2.884-6.455 6.445-6.466h0.001zM104.643 18.876c0.042 0.001 0.091 0.002 0.14 0.002 2.975 0 5.386-2.412 5.386-5.386s-2.412-5.386-5.386-5.386c-2.975 0-5.386 2.412-5.386 5.386 0 0.005 0 0.011 0 0.016v-0.001c-0 0.026-0.001 0.057-0.001 0.088 0 2.905 2.345 5.262 5.245 5.281h0.002z"></path>
<path fill="#282828" style="fill: var(--color7, #282828)" d="M123.985 12.584c0-3.512-2.085-4.477-4.015-4.477-1.467 0-4.401 1.081-4.439 5.211v6.331h-1.119v-12.276h1.12v2.856c0.707-1.842 2.461-3.127 4.515-3.127 0 0 0.001 0 0.001 0h-0c2.586 0 5.134 1.274 5.134 5.481v7.066h-1.12v-7.066z"></path>
<path fill="#282828" style="fill: var(--color7, #282828)" d="M130.393 19.611h-1.12v-17.874h1.12z"></path>
<path fill="#5ddcea" style="fill: var(--color9, #5ddcea)" d="M135.373 2.046c0.495 0.008 0.893 0.411 0.893 0.907 0 0.034-0.002 0.068-0.006 0.101l0-0.004c0.004 0.033 0.007 0.070 0.007 0.108 0 0.494-0.4 0.894-0.894 0.894s-0.894-0.4-0.894-0.894c0-0.038 0.002-0.076 0.007-0.113l-0 0.004c-0.003-0.029-0.005-0.063-0.005-0.097 0-0.496 0.398-0.899 0.893-0.907h0.001zM135.952 19.609h-1.121v-12.237h1.12z"></path>
<path fill="#282828" style="fill: var(--color7, #282828)" d="M149.925 12.584c0-3.512-2.085-4.477-4.015-4.477-1.467 0-4.401 1.081-4.439 5.211v6.331h-1.158v-12.276h1.12v2.856c0.707-1.842 2.461-3.127 4.515-3.127 0 0 0.001 0 0.001 0h-0c2.586 0 5.134 1.274 5.134 5.481v7.066h-1.12v-7.066z"></path>
<path fill="#282828" style="fill: var(--color7, #282828)" d="M166.022 17.871c-1.243 1.243-2.961 2.012-4.858 2.012-0.070 0-0.14-0.001-0.209-0.003l0.010 0c-4.169 0-6.87-2.858-6.87-6.374-0-0.007-0-0.016-0-0.025 0-3.546 2.875-6.421 6.421-6.421 0.063 0 0.126 0.001 0.189 0.003l-0.009-0c3.048 0 5.906 1.814 6.022 6.061h-11.426c-0.026 0.116-0.040 0.25-0.040 0.387 0 0.027 0.001 0.053 0.002 0.080l-0-0.004c0 2.934 2.239 5.25 5.713 5.25 0.022 0 0.049 0 0.075 0 1.661 0 3.171-0.647 4.293-1.702l-0.003 0.003c0.217 0.267 0.444 0.507 0.687 0.727l0.005 0.005zM155.407 12.235h10.115c-0.229-2.332-2.179-4.139-4.552-4.139-0.096 0-0.192 0.003-0.286 0.009l0.013-0.001c-0.040-0.001-0.087-0.002-0.135-0.002-2.51 0-4.611 1.751-5.149 4.097l-0.007 0.036z"></path>
</symbol>

<symbol id="icon-microsoft" viewBox="0 0 32 32">
<path fill="#f1511b" style="fill: var(--color11, #f1511b)" d="M15.205 15.205h-15.205v-15.205h15.205z"></path>
<path fill="#80cc28" style="fill: var(--color12, #80cc28)" d="M31.993 15.205h-15.205v-15.205h15.205v15.205z"></path>
<path fill="#00adef" style="fill: var(--color13, #00adef)" d="M15.205 32h-15.205v-15.205h15.205z"></path>
<path fill="#fbbc09" style="fill: var(--color14, #fbbc09)" d="M31.993 32h-15.205v-15.205h15.205v15.205z"></path>
</symbol>
</defs>
</svg>
